<svg xmlns="http://www.w3.org/2000/svg" width="35" height="50" viewBox="0 0 35 50"><g><g><path fill="#fff" d="M34.538 27.37c.033-5.635-9-5.33-7.246-13.049-4.169 5.785 2.847 8.699.26 12.537-2.589 3.838-5.808 2.43-5.808 6.78s4.772 3.71 3.995 7.292c-.307 1.42-1.705 3.143-3.28 4.704.394-1.113.693-2.45.693-3.936 0-4.35-5.692-2.815-6.469-7.164-.776-4.35 8.741-8.06 6.67-15.224-2.07-7.164-6.928-3.71-7.964-7.037-1.034-3.326 4.284-5.472-.258-12.281 1.812 5.885-4.14 6.653-6.21 15.352-2.07 8.699 6.986 5.885 7.762 11.002.777 5.117-5.52 7.065-7.13 13.433-.46 1.817-.724 3.249-.699 4.417-1.017-1.168-1.809-2.353-2.032-3.38-.776-3.582 3.996-2.943 3.996-7.292 0-4.35-2.242-2.872-4.83-6.71-2.587-3.838 3.45-6.823-.719-12.607C7.024 21.925-.026 21.294.008 26.929c.029 4.79.892 2.302 2.185 7.164 1.294 4.862-3.45 4.037-1.38 9.666 2.07 5.629 16.1 6.462 17.399 6.189 2.945-.253 11.816-1.396 13.537-6.076 2.07-5.63-2.674-4.804-1.38-9.666s4.14-2.047 4.169-6.836z"/></g></g></svg>